<svg xmlns="http://www.w3.org/2000/svg" xmlns:xlink="http://www.w3.org/1999/xlink" viewBox="0 0 111.9 40.15"><defs><style>.cls-1{fill:none}.cls-2{clip-path:url(#clip-path)}.cls-3{fill:url(#Gradiente_sem_nome_4)}.cls-4{clip-path:url(#clip-path-2)}.cls-5{fill:url(#Gradiente_sem_nome_4-2)}.cls-6{clip-path:url(#clip-path-3)}.cls-7{fill:url(#Gradiente_sem_nome_4-3)}.cls-8{clip-path:url(#clip-path-4)}.cls-9{fill:url(#Gradiente_sem_nome_4-4)}.cls-10{fill:#fff}.cls-11{clip-path:url(#clip-path-5)}</style><clipPath id="clip-path"><path class="cls-1" d="M32.83 11.3H40v14.51h-7.17z"/></clipPath><linearGradient id="Gradiente_sem_nome_4" x1="-25.67" y1="551.04" x2="-24.67" y2="551.04" gradientTransform="matrix(0 -10.34 -10.34 0 5735.47 -240.8)" gradientUnits="userSpaceOnUse"><stop offset="0" stop-color="#fff"/><stop offset=".03" stop-color="#fbfdfa"/><stop offset=".51" stop-color="#b2dc99"/><stop offset=".84" stop-color="#84c75c"/><stop offset="1" stop-color="#72bf44"/></linearGradient><clipPath id="clip-path-2"><path class="cls-1" d="M0 0h7.19v25.73H0z"/></clipPath><linearGradient id="Gradiente_sem_nome_4-2" x1="-26.9" y1="546.71" x2="-25.9" y2="546.71" gradientTransform="matrix(0 -18.99 -18.99 0 10386.57 -485.86)" xlink:href="#Gradiente_sem_nome_4"/><clipPath id="clip-path-3"><path class="cls-1" d="M50.87 23.17a14.31 14.31 0 0 0 0 5.11h21a7.25 7.25 0 0 0 0-5.11z"/></clipPath><linearGradient id="Gradiente_sem_nome_4-3" x1="-34.86" y1="543.32" x2="-33.86" y2="543.32" gradientTransform="matrix(0 15.17 15.17 0 -8179.7 550.64)" xlink:href="#Gradiente_sem_nome_4"/><clipPath id="clip-path-4"><path class="cls-1" d="M104.25 23.17h-25a15.42 15.42 0 0 1 .22 2.56 14.31 14.31 0 0 1-.23 2.55h25a7.25 7.25 0 0 0 0-5.11z"/></clipPath><linearGradient id="Gradiente_sem_nome_4-4" x1="-31.47" y1="542.38" x2="-30.47" y2="542.38" gradientTransform="matrix(0 31.73 31.73 0 -17119.11 998.68)" xlink:href="#Gradiente_sem_nome_4"/><clipPath id="clip-path-5"><path class="cls-1" d="M0 0h111.9v40.15H0z"/></clipPath></defs><title>Ativo 5</title><g id="Camada_2" data-name="Camada 2"><g id="Camada_1-2" data-name="Camada 1"><g class="cls-2"><path class="cls-3" d="M32.83 11.3H40v14.51h-7.17z"/></g><g class="cls-4"><path class="cls-5" d="M0 0h7.19v25.73H0z"/></g><g class="cls-6"><path class="cls-7" transform="rotate(-89.54 61.47 25.728)" d="M58.83 14.88h5.28v21.7h-5.28z"/></g><g class="cls-8"><path class="cls-9" transform="rotate(-89.45 91.986 25.725)" d="M89.31 12.98h5.35v25.5h-5.35z"/></g><path class="cls-10" d="M32.83 25.81H40v14.34h-7.17z"/><g class="cls-11"><path class="cls-10" d="M47.25 11.3a14.28 14.28 0 0 0-7.25 2v12.43a7.25 7.25 0 0 1 7.25-7.24 8.87 8.87 0 0 1 .9.06v-7.22h-.9m-32.82-.03a14.34 14.34 0 0 0-7.24 1.95v12.48A7.24 7.24 0 1 1 14.43 33a7.24 7.24 0 0 1-7.24-7.23H0v14.38h7.17v-2a14.42 14.42 0 1 0 7.26-26.85M68 32.35a7.23 7.23 0 0 1-9.67-4.07h-7.46a14.42 14.42 0 0 0 22.37 9.33zM65.07 11.3a14.42 14.42 0 0 0-14.2 11.87h7.43a7.24 7.24 0 0 1 13.54 0 7.25 7.25 0 0 1 0 5.11h7.43a14.42 14.42 0 0 0-14.19-17m35.3 21.07a7.23 7.23 0 0 1-9.67-4.07h-7.43a14.42 14.42 0 0 0 22.37 9.33zm-2.9-21.05a14.43 14.43 0 0 0-14.2 11.87h7.43a7.23 7.23 0 1 1 13.53 5.11h7.44a15.3 15.3 0 0 0 .22-2.55A14.42 14.42 0 0 0 97.48 11.3"/></g></g></g></svg>